<?xml version="1.0" standalone="no"?><!DOCTYPE svg PUBLIC "-//W3C//DTD SVG 1.1//EN" "http://www.w3.org/Graphics/SVG/1.1/DTD/svg11.dtd"><svg t="1713582810300" class="icon" viewBox="0 0 1194 1024" version="1.1" xmlns="http://www.w3.org/2000/svg" p-id="12524" xmlns:xlink="http://www.w3.org/1999/xlink" width="233.203125" height="200"><path d="M816.042667 974.08c12.885333 6.826667 28.16 10.154667 42.837333 10.154667 18.176 0 35.84-5.12 49.834667-14.165334 28.16-18.688 42.837333-50.346667 36.949333-82.090666l-42.24-239.530667 183.637333-172.714667a78.677333 78.677333 0 0 0 21.077334-85.504 87.381333 87.381333 0 0 0-71.509334-55.466666l-249.941333-35.072-108.458667-212.906667a90.453333 90.453333 0 0 0-80.981333-47.616c-33.962667 0-66.218667 18.773333-80.896 47.616L407.808 299.690667l-249.856 35.072a87.210667 87.210667 0 0 0-71.594667 55.466666 77.824 77.824 0 0 0 21.162667 84.992l183.552 173.226667-42.24 239.530667c-5.802667 31.658667 8.874667 63.402667 36.949333 82.090666a93.866667 93.866667 0 0 0 51.029334 14.762667c15.36 0 29.952-3.413333 43.52-10.24l217.6-110.933333 218.112 110.336z m-188.245334-183.466667a67.925333 67.925333 0 0 0-29.866666-6.826666 62.037333 62.037333 0 0 0-29.952 7.936l-225.877334 114.944c-1.706667 0.512-3.413333 1.109333-5.205333 1.109333a10.24 10.24 0 0 1-5.973333-1.706667c-2.304-1.706667-3.413333-3.925333-2.901334-5.632l44.032-248.064a57.514667 57.514667 0 0 0-17.578666-52.650666L164.437333 420.266667c-1.706667-1.706667-2.389333-3.413333-1.706666-5.12 0.512-1.706667 3.413333-3.925333 6.997333-4.522667l260.352-36.266667c20.565333-3.413333 38.144-15.274667 47.530667-33.365333l112.64-220.842667c1.194667-2.816 4.693333-4.522667 8.192-4.522666s7.082667 1.706667 8.192 3.925333L719.36 340.48a62.037333 62.037333 0 0 0 47.530667 33.450667l259.242666 36.181333c3.498667 0.597333 6.485333 2.901333 6.997334 4.522667 0.597333 2.304-0.512 4.010667-1.706667 5.12L841.301333 598.613333a59.050667 59.050667 0 0 0-17.578666 52.650667l43.946666 248.576c0 1.706667-1.194667 3.925333-2.901333 5.12a10.154667 10.154667 0 0 1-5.973333 1.706667 11.264 11.264 0 0 1-4.608-1.194667L627.797333 790.528z" fill="#515151" p-id="12525"></path></svg>