<?xml version="1.0" standalone="no"?><!DOCTYPE svg PUBLIC "-//W3C//DTD SVG 1.1//EN" "http://www.w3.org/Graphics/SVG/1.1/DTD/svg11.dtd"><svg t="1713581790810" class="icon" viewBox="0 0 1024 1024" version="1.1" xmlns="http://www.w3.org/2000/svg" p-id="4095" xmlns:xlink="http://www.w3.org/1999/xlink" width="200" height="200"><path d="M928.853333 166.058667c28.586667 28.16 51.2 60.842667 66.986667 97.450666 16.384 38.058667 24.746667 78.421333 24.576 119.978667 0 39.253333-8.021333 80.042667-23.893333 121.6-13.141333 34.645333-32.341333 70.741333-56.746667 107.093333-38.570667 57.514667-91.648 117.589333-157.525333 178.346667a1784.32 1784.32 0 0 1-222.037334 173.397333l-27.818666 17.92a37.802667 37.802667 0 0 1-40.618667 0l-27.904-17.92a1761.28 1761.28 0 0 1-221.952-173.312C175.957333 729.770667 122.88 669.696 84.309333 612.181333a544.426667 544.426667 0 0 1-56.746666-107.093333 340.565333 340.565333 0 0 1-23.893334-121.6 304.213333 304.213333 0 0 1 91.648-217.344A312.32 312.32 0 0 1 314.624 76.885333a314.368 314.368 0 0 1 197.461333 69.461334A314.368 314.368 0 0 1 709.461333 76.885333a312.32 312.32 0 0 1 219.392 89.173334zM93.013333 383.488c0 236.8 418.986667 505.173333 418.986667 505.173333s418.986667-268.373333 418.986667-505.173333c0-119.978667-99.242667-217.173333-221.610667-217.173333A222.208 222.208 0 0 0 512 284.501333a222.208 222.208 0 0 0-197.376-118.186666c-122.368 0-221.610667 97.28-221.610667 217.173333z" fill="#666666" p-id="4096"></path></svg>