<?xml version="1.0" standalone="no"?>
<!DOCTYPE svg PUBLIC "-//W3C//DTD SVG 1.1//EN" "http://www.w3.org/Graphics/SVG/1.1/DTD/svg11.dtd">
<svg t="1715330832418" class="icon" viewBox="0 0 1024 1024" version="1.1"
  xmlns="http://www.w3.org/2000/svg" p-id="6651" xmlns:xlink="http://www.w3.org/1999/xlink"
  width="200" height="200">
  <path
    d="M960.181358 678.420982l-106.397481-277.910221a73.031231 73.031231 0 0 0-68.392301-47.240481 72.946113 72.946113 0 0 0-64.774786 39.154273l-60.348652 114.909279-217.050861-395.373039a72.903554 72.903554 0 0 0-131.039138 5.532669L65.633896 675.016262a73.329144 73.329144 0 0 0 5.532669 69.796748 72.350287 72.350287 0 0 0 61.412626 33.621604h759.252425a72.860995 72.860995 0 0 0 60.348651-31.919245 73.882411 73.882411 0 0 0 8.001091-68.094387z m-68.349742 39.579863H132.366396a13.278406 13.278406 0 0 1-12.129312-18.725957L366.781327 142.177677a13.235847 13.235847 0 0 1 23.790476-1.27677l258.886351 471.128046a13.278406 13.278406 0 0 0 11.703723 7.235029 13.491201 13.491201 0 0 0 11.746282-7.235029l100.737135-191.515465a12.767698 12.767698 0 0 1 11.703723-6.809439 13.278406 13.278406 0 0 1 12.427226 8.511798l106.397481 277.910221a13.193288 13.193288 0 0 1-12.384667 17.874777zM741.853727 224.742122a110.65338 110.65338 0 0 0 79.159726-32.770424 113.121802 113.121802 0 0 0 0-159.170631 111.93015 111.93015 0 0 0-191.047317 79.585315 112.738771 112.738771 0 0 0 32.770424 79.585316 110.65338 110.65338 0 0 0 79.117167 32.770424z m0-184.706027a72.350287 72.350287 0 1 1-71.924697 72.350287 72.094933 72.094933 0 0 1 71.924697-72.350287z m88.948294 804.790547H175.563774a29.15291 29.15291 0 0 0 0 58.30582h655.408483a29.15291 29.15291 0 0 0 0-58.30582z m-139.891408 120.441948H315.242387a29.15291 29.15291 0 0 0 0 58.30582h375.668226a29.15291 29.15291 0 0 0 0-58.30582z m0 0"
    p-id="6652"></path>
</svg>