<?xml version="1.0" standalone="no"?><!DOCTYPE svg PUBLIC "-//W3C//DTD SVG 1.1//EN" "http://www.w3.org/Graphics/SVG/1.1/DTD/svg11.dtd"><svg t="1715330992676" class="icon" viewBox="0 0 1024 1024" version="1.1" xmlns="http://www.w3.org/2000/svg" p-id="7825" xmlns:xlink="http://www.w3.org/1999/xlink" width="200" height="200"><path d="M510.676605 919.359461l-47.026689-36.501082a1406.491945 1406.491945 0 0 1-160.038471-153.021399c-113.134888-127.476797-170.502525-246.213032-170.502525-352.515508a377.875451 377.875451 0 0 1 755.689349 0.553979c0 106.425583-57.306083 225.038711-170.440972 352.453955a1413.693676 1413.693676 0 0 1-158.561192 150.990142l-12.310652 10.033181h-1.046405z m0-845.495551A304.073094 304.073094 0 0 0 206.665064 377.321472c0 87.836499 51.089204 189.953354 151.851887 303.396008a1326.595816 1326.595816 0 0 0 151.482568 144.650156l0.677086 0.492427 3.077663-2.154365a1326.65737 1326.65737 0 0 0 149.081991-142.434239c100.70113-113.442654 151.790334-215.436403 151.790334-303.396008A304.319308 304.319308 0 0 0 510.676605 73.86391z" p-id="7826"></path><path d="M510.122626 543.269055a174.995912 174.995912 0 1 1 174.995912-174.995912A175.180572 175.180572 0 0 1 510.122626 543.269055z m0-276.127915a101.132003 101.132003 0 1 0 101.132003 101.132003A101.255109 101.255109 0 0 0 510.122626 267.14114zM891.568165 697.767733h-79.526809l100.947343 252.368357H111.072854l100.947343-252.368357H132.493388L22.251503 973.649435a36.931955 36.931955 0 0 0 34.285164 50.350565h910.988219a36.931955 36.931955 0 0 0 34.285164-50.658331z" p-id="7827"></path></svg>